<svg width="100%" height="100%" id="svg" viewBox="0 0 1420 490" xmlns="http://www.w3.org/2000/svg" class="transition duration-300 ease-in-out delay-150"><defs><linearGradient id="gradient" x1="0%" y1="50%" x2="100%" y2="50%"><stop offset="5%" stop-color="#F78DA7"></stop><stop offset="95%" stop-color="#8ED1FC"></stop></linearGradient></defs><path d="M 0,500 L 0,125 C 71.55338733431518,128.100147275405 143.10677466863035,131.20029455081 192,139 C 240.89322533136965,146.79970544919 267.1262886597938,159.29896907216494 332,142 C 396.8737113402062,124.70103092783505 500.38807069219445,77.6038291605302 568,82 C 635.6119293078056,86.3961708394698 667.3214285714286,142.28571428571428 718,154 C 768.6785714285714,165.71428571428572 838.3262150220916,133.25331369661268 895,132 C 951.6737849779084,130.74668630338732 995.373711340206,160.70103092783503 1048,174 C 1100.626288659794,187.29896907216497 1162.178939617084,183.94256259204712 1229,173 C 1295.821060382916,162.05743740795288 1367.9105301914578,143.52871870397644 1440,125 L 1440,500 L 0,500 Z" stroke="none" stroke-width="0" fill="url(#gradient)" fill-opacity="0.53" class="transition-all duration-300 ease-in-out delay-150 path-0" data-darkreader-inline-stroke="" style="--darkreader-inline-stroke: none;"></path><defs><linearGradient id="gradient" x1="0%" y1="50%" x2="100%" y2="50%"><stop offset="5%" stop-color="#F78DA7"></stop><stop offset="95%" stop-color="#8ED1FC"></stop></linearGradient></defs><path d="M 0,500 L 0,291 C 65.84315169366717,294.71318114874816 131.68630338733433,298.4263622974963 190,305 C 248.31369661266567,311.5736377025037 299.0979381443299,321.0077319587629 360,322 C 420.9020618556701,322.9922680412371 491.9219440353461,315.5427098674521 554,297 C 616.0780559646539,278.4572901325479 669.2142857142857,248.82142857142858 723,235 C 776.7857142857143,221.17857142857142 831.2209131075111,223.1715758468336 883,245 C 934.7790868924889,266.8284241531664 983.9020618556699,308.4922680412371 1053,330 C 1122.09793814433,351.5077319587629 1211.1708394698087,352.85935198821795 1279,343 C 1346.8291605301913,333.14064801178205 1393.4145802650955,312.07032400589105 1440,291 L 1440,500 L 0,500 Z" stroke="none" stroke-width="0" fill="url(#gradient)" fill-opacity="1" class="transition-all duration-300 ease-in-out delay-150 path-1" data-darkreader-inline-stroke="" style="--darkreader-inline-stroke: none;"></path></svg>